<svg xmlns="http://www.w3.org/2000/svg" viewBox="0 0 128 128" role="img" aria-label="Glossa">
  <defs>
    <linearGradient id="glossa-bg" x1="18" y1="18" x2="110" y2="110" gradientUnits="userSpaceOnUse">
      <stop offset="0" stop-color="#0f766e"/>
      <stop offset="1" stop-color="#1d4ed8"/>
    </linearGradient>
    <filter id="shadow" x="-20%" y="-20%" width="140%" height="140%">
      <feDropShadow dx="0" dy="5" stdDeviation="6" flood-color="#0f172a" flood-opacity=".24"/>
    </filter>
  </defs>
  <rect width="128" height="128" rx="28" fill="url(#glossa-bg)"/>
  <path d="M31 35h42c13 0 24 11 24 24s-11 24-24 24H59l-20 17v-17h-8c-5 0-9-4-9-9V44c0-5 4-9 9-9z" fill="#ecfeff" filter="url(#shadow)"/>
  <path d="M47 54h35M47 66h25" stroke="#0f172a" stroke-width="8" stroke-linecap="round"/>
  <circle cx="39" cy="54" r="4" fill="#14b8a6"/>
  <path d="M79 86c9-1 18-8 20-18 5 4 8 10 8 17 0 12-10 22-22 22h-5l-14 12v-13c7-3 12-10 13-20z" fill="#bfdbfe"/>
  <path d="M83 78h13M78 90h18" stroke="#1e3a8a" stroke-width="6" stroke-linecap="round"/>
</svg>
